<svg xmlns="http://www.w3.org/2000/svg" viewBox="0 0 512 512" role="img" aria-labelledby="title desc">
  <title id="title">AI Leverage Lab app icon</title>
  <desc id="desc">The Quantum Bolt mark on a dark rounded-square background.</desc>
  <defs>
    <linearGradient id="bg" x1="32" y1="24" x2="478" y2="492" gradientUnits="userSpaceOnUse">
      <stop stop-color="#071B2A"/>
      <stop offset="1" stop-color="#03090D"/>
    </linearGradient>
    <linearGradient id="border" x1="42" y1="42" x2="470" y2="470" gradientUnits="userSpaceOnUse">
      <stop stop-color="#00E7E0" stop-opacity=".78"/>
      <stop offset="1" stop-color="#2A8CFF" stop-opacity=".2"/>
    </linearGradient>
    <linearGradient id="orbit" x1="84" y1="99" x2="437" y2="421" gradientUnits="userSpaceOnUse">
      <stop stop-color="#00E7E0"/>
      <stop offset="1" stop-color="#2A8CFF"/>
    </linearGradient>
    <linearGradient id="bolt" x1="214" y1="124" x2="282" y2="425" gradientUnits="userSpaceOnUse">
      <stop stop-color="#00E7E0"/>
      <stop offset=".52" stop-color="#19B7F4"/>
      <stop offset="1" stop-color="#2A8CFF"/>
    </linearGradient>
  </defs>

  <rect x="18" y="18" width="476" height="476" rx="106" fill="url(#bg)"/>
  <rect x="25" y="25" width="462" height="462" rx="99" fill="none" stroke="url(#border)" stroke-width="3"/>

  <g transform="translate(25 25) scale(.9)">
    <path d="M98 292C57 182 125 77 241 68C351 59 444 130 456 239C468 347 395 438 289 451C221 459 158 436 117 392"
          fill="none" stroke="url(#orbit)" stroke-width="18" stroke-linecap="round"/>
    <circle cx="420" cy="144" r="15" fill="#F4C542" stroke="#03090D" stroke-width="7"/>
    <path d="M210 112H281L249 246H367L310 305H365L184 447L230 311H141L202 247H174Z"
          fill="url(#bolt)"/>
  </g>
</svg>
